<svg xmlns="http://www.w3.org/2000/svg" xmlns:xlink="http://www.w3.org/1999/xlink" width="299.25" viewBox="95 45 100 190" height="281.25" version="1.0">
    <style>
        g {
            fill: black;
        }
        @media (prefers-color-scheme: dark) {
            g {
                fill: white;
            }
        }
    </style>
    <g fill="#ffffff" fill-opacity="1">
        <g transform="translate(57.066158, 222.928478)">
            <g>
                <path d="M 24 -32.75 C 24.476562 -32.75 24.941406 -32.71875 25.390625 -32.65625 C 25.847656 -32.601562 26.265625 -32.523438 26.640625 -32.421875 L 26.640625 -23.359375 C 26.265625 -23.460938 25.820312 -23.539062 25.3125 -23.59375 C 24.8125 -23.644531 24.265625 -23.671875 23.671875 -23.671875 C 21.160156 -23.671875 19.085938 -22.945312 17.453125 -21.5 C 15.816406 -20.0625 15 -18.003906 15 -15.328125 L 15 0 L 4.734375 0 L 4.734375 -32.09375 L 15 -32.09375 L 15 -27.6875 C 16.070312 -29.238281 17.367188 -30.46875 18.890625 -31.375 C 20.421875 -32.289062 22.125 -32.75 24 -32.75 Z M 24 -32.75 "/>
            </g>
        </g>
    </g>
    <g fill="#ffffff" fill-opacity="1">
        <g transform="translate(79.439239, 222.928478)">
            <g>
                <path d="M 37.390625 -16.125 L 37.390625 -14.359375 L 12.84375 -14.359375 C 13.050781 -12.066406 13.769531 -10.265625 15 -8.953125 C 16.238281 -7.640625 18.003906 -6.984375 20.296875 -6.984375 C 23.828125 -6.984375 26.078125 -8.347656 27.046875 -11.078125 L 36.921875 -11.078125 C 36.117188 -7.597656 34.285156 -4.773438 31.421875 -2.609375 C 28.554688 -0.441406 24.90625 0.640625 20.46875 0.640625 C 16.882812 0.640625 13.738281 -0.0507812 11.03125 -1.4375 C 8.332031 -2.832031 6.234375 -4.785156 4.734375 -7.296875 C 3.234375 -9.816406 2.484375 -12.734375 2.484375 -16.046875 C 2.484375 -19.421875 3.234375 -22.363281 4.734375 -24.875 C 6.234375 -27.394531 8.316406 -29.347656 10.984375 -30.734375 C 13.660156 -32.128906 16.710938 -32.828125 20.140625 -32.828125 C 23.617188 -32.828125 26.640625 -32.128906 29.203125 -30.734375 C 31.773438 -29.347656 33.78125 -27.410156 35.21875 -24.921875 C 36.664062 -22.429688 37.390625 -19.5 37.390625 -16.125 Z M 20.296875 -24.953125 C 18.484375 -24.953125 17.023438 -24.5625 15.921875 -23.78125 C 14.828125 -23.007812 14.015625 -21.929688 13.484375 -20.546875 L 26.8125 -20.546875 C 26.269531 -21.929688 25.476562 -23.007812 24.4375 -23.78125 C 23.394531 -24.5625 22.015625 -24.953125 20.296875 -24.953125 Z M 20.296875 -24.953125 "/>
            </g>
        </g>
    </g>
    <g fill="#ffffff" fill-opacity="1">
        <g transform="translate(115.13375, 222.928478)">
            <g>
                <path d="M 24.15625 -32.75 C 26.289062 -32.75 28.210938 -32.195312 29.921875 -31.09375 C 31.640625 -30 33.019531 -28.515625 34.0625 -26.640625 C 35.101562 -24.765625 35.625 -22.648438 35.625 -20.296875 L 35.625 0 L 25.4375 0 L 25.4375 -18.625 C 25.4375 -20.0625 24.96875 -21.257812 24.03125 -22.21875 C 23.09375 -23.1875 21.878906 -23.671875 20.390625 -23.671875 C 18.890625 -23.671875 17.613281 -23.1875 16.5625 -22.21875 C 15.519531 -21.257812 15 -20.0625 15 -18.625 L 15 0 L 4.734375 0 L 4.734375 -32.09375 L 15 -32.09375 L 15 -28.171875 C 16.125 -29.554688 17.472656 -30.664062 19.046875 -31.5 C 20.628906 -32.332031 22.332031 -32.75 24.15625 -32.75 Z M 24.15625 -32.75 "/>
            </g>
        </g>
    </g>
    <g fill="#ffffff" fill-opacity="1">
        <g transform="translate(150.748014, 222.928478)">
            <g>
                <path d="M 37.390625 -16.125 L 37.390625 -14.359375 L 12.84375 -14.359375 C 13.050781 -12.066406 13.769531 -10.265625 15 -8.953125 C 16.238281 -7.640625 18.003906 -6.984375 20.296875 -6.984375 C 23.828125 -6.984375 26.078125 -8.347656 27.046875 -11.078125 L 36.921875 -11.078125 C 36.117188 -7.597656 34.285156 -4.773438 31.421875 -2.609375 C 28.554688 -0.441406 24.90625 0.640625 20.46875 0.640625 C 16.882812 0.640625 13.738281 -0.0507812 11.03125 -1.4375 C 8.332031 -2.832031 6.234375 -4.785156 4.734375 -7.296875 C 3.234375 -9.816406 2.484375 -12.734375 2.484375 -16.046875 C 2.484375 -19.421875 3.234375 -22.363281 4.734375 -24.875 C 6.234375 -27.394531 8.316406 -29.347656 10.984375 -30.734375 C 13.660156 -32.128906 16.710938 -32.828125 20.140625 -32.828125 C 23.617188 -32.828125 26.640625 -32.128906 29.203125 -30.734375 C 31.773438 -29.347656 33.78125 -27.410156 35.21875 -24.921875 C 36.664062 -22.429688 37.390625 -19.5 37.390625 -16.125 Z M 20.296875 -24.953125 C 18.484375 -24.953125 17.023438 -24.5625 15.921875 -23.78125 C 14.828125 -23.007812 14.015625 -21.929688 13.484375 -20.546875 L 26.8125 -20.546875 C 26.269531 -21.929688 25.476562 -23.007812 24.4375 -23.78125 C 23.394531 -24.5625 22.015625 -24.953125 20.296875 -24.953125 Z M 20.296875 -24.953125 "/>
            </g>
        </g>
    </g>
    <g fill="#ffffff" fill-opacity="1">
        <g transform="translate(186.442523, 222.928478)">
            <g>
                <path d="M 43.8125 -32.09375 L 55.21875 -32.09375 L 44.296875 0 L 33.46875 0 L 27.453125 -18.140625 L 21.421875 0 L 10.671875 0 L -0.40625 -32.09375 L 11.234375 -32.09375 L 16.609375 -10.828125 L 23.4375 -32.09375 L 31.453125 -32.09375 L 38.359375 -10.75 Z M 43.8125 -32.09375 "/>
            </g>
        </g>
    </g>
    <g fill="#ffffff" fill-opacity="1">
        <g transform="translate(46.916673, 184.266167)">
            <g>
                <path d="M 55.15625 -73.296875 L 55.15625 -55.15625 L 37.75 -55.15625 L 37.75 0 L 14.296875 0 L 14.296875 -55.15625 L 2.015625 -55.15625 L 2.015625 -73.296875 L 14.296875 -73.296875 L 14.296875 -98.03125 C 14.296875 -103.28125 15.609375 -107.953125 18.234375 -112.046875 C 20.859375 -116.140625 24.367188 -119.40625 28.765625 -121.84375 C 33.160156 -124.289062 37.925781 -125.515625 43.0625 -125.515625 C 45.507812 -125.515625 47.859375 -125.300781 50.109375 -124.875 C 52.367188 -124.445312 53.929688 -123.929688 54.796875 -123.328125 L 54.796875 -105 L 46 -105 C 43.550781 -105 41.5625 -104.140625 40.03125 -102.421875 C 38.507812 -100.710938 37.75 -98.332031 37.75 -95.28125 L 37.75 -73.296875 Z M 55.15625 -73.296875 "/>
            </g>
        </g>
    </g>
    <g fill="#ffffff" fill-opacity="1">
        <g transform="translate(92.687329, 184.266167)">
            <g>
                <path d="M 43.609375 1.46875 C 32.492188 1.46875 23.972656 -1.21875 18.046875 -6.59375 C 12.117188 -11.96875 9.15625 -19.113281 9.15625 -28.03125 L 9.15625 -73.296875 L 32.609375 -73.296875 L 32.609375 -31.15625 C 32.609375 -27.726562 33.675781 -24.882812 35.8125 -22.625 C 37.957031 -20.363281 40.554688 -19.234375 43.609375 -19.234375 C 46.785156 -19.234375 49.441406 -20.363281 51.578125 -22.625 C 53.722656 -24.882812 54.796875 -27.726562 54.796875 -31.15625 L 54.796875 -73.296875 L 78.0625 -73.296875 L 78.0625 -28.03125 C 78.0625 -19.113281 75.097656 -11.96875 69.171875 -6.59375 C 63.242188 -1.21875 54.722656 1.46875 43.609375 1.46875 Z M 43.609375 1.46875 "/>
            </g>
        </g>
    </g>
    <g fill="#ffffff" fill-opacity="1">
        <g transform="translate(170.706846, 184.266167)">
            <g>
                <path d="M 10.8125 0 L 10.8125 -125.515625 L 34.265625 -125.515625 L 34.265625 0 Z M 10.8125 0 "/>
            </g>
        </g>
    </g>
    <g fill="#ffffff" fill-opacity="1">
        <g transform="translate(206.399742, 184.266167)">
            <g>
                <path d="M 10.8125 0 L 10.8125 -125.515625 L 34.265625 -125.515625 L 34.265625 0 Z M 10.8125 0 "/>
            </g>
        </g>
    </g>
</svg>